<svg xmlns="http://www.w3.org/2000/svg" width="16" height="16" fill="none"><path fill="#555F62" fill-rule="evenodd" d="M2.668 6.616c0-2.912 2.393-5.282 5.333-5.282 2.941 0 5.334 2.37 5.334 5.282 0 3.65-4.7 7.72-4.9 7.89a.665.665 0 0 1-.868 0c-.2-.17-4.899-4.24-4.899-7.89Zm5.333 2.052a2.336 2.336 0 0 1-2.333-2.334 2.336 2.336 0 0 1 2.333-2.333 2.336 2.336 0 0 1 2.334 2.333A2.336 2.336 0 0 1 8 8.668Zm0-3.334a1.001 1.001 0 0 0 0 2 1.001 1.001 0 0 0 0-2Z" clip-rule="evenodd"/><mask id="a" width="12" height="14" x="2" y="1" style="mask-type:luminance"><path fill="#fff" fill-rule="evenodd" d="M2.668 6.616c0-2.912 2.393-5.282 5.333-5.282 2.941 0 5.334 2.37 5.334 5.282 0 3.65-4.7 7.72-4.9 7.89a.665.665 0 0 1-.868 0c-.2-.17-4.899-4.24-4.899-7.89Zm5.333 2.052a2.336 2.336 0 0 1-2.333-2.334 2.336 2.336 0 0 1 2.333-2.333 2.336 2.336 0 0 1 2.334 2.333A2.336 2.336 0 0 1 8 8.668Zm0-3.334a1.001 1.001 0 0 0 0 2 1.001 1.001 0 0 0 0-2Z" clip-rule="evenodd"/></mask></svg>