<svg xmlns="http://www.w3.org/2000/svg" width="16" height="16" fill="none"><path fill="#555F62" d="M11.599 14.668c-5.662 0-10.267-4.606-10.267-10.267A3.07 3.07 0 0 1 5.392 1.5c.218.075.38.257.432.48l.913 3.977a.669.669 0 0 1-.168.61c-.092.095-.094.097-.92.53a6.631 6.631 0 0 0 3.253 3.255c.433-.827.435-.83.53-.92a.674.674 0 0 1 .611-.17l3.976.914a.667.667 0 0 1 .481.43 3.034 3.034 0 0 1 .165.995 3.07 3.07 0 0 1-3.066 3.067Z"/><mask id="a" width="14" height="14" x="1" y="1" style="mask-type:luminance"><path fill="#fff" d="M11.599 14.668c-5.662 0-10.267-4.606-10.267-10.267A3.07 3.07 0 0 1 5.392 1.5c.218.075.38.257.432.48l.913 3.977a.669.669 0 0 1-.168.61c-.092.095-.094.097-.92.53a6.631 6.631 0 0 0 3.253 3.255c.433-.827.435-.83.53-.92a.674.674 0 0 1 .611-.17l3.976.914a.667.667 0 0 1 .481.43 3.034 3.034 0 0 1 .165.995 3.07 3.07 0 0 1-3.066 3.067Z"/></mask></svg>