<svg width="64" height="16" viewBox="0 0 64 16" fill="none" xmlns="http://www.w3.org/2000/svg"> <path d="M45.4234 6.88057V8.34222H44.5118V9.30077H45.4234V12.5577C45.4234 13.6698 45.924 14.1147 47.1834 14.1147C47.4047 14.1147 47.6155 14.0882 47.7999 14.0564V13.1085C47.6419 13.1244 47.5417 13.135 47.3678 13.135C46.804 13.135 46.5564 12.8702 46.5564 12.2664V9.30077H47.7999V8.34222H46.5564V6.88057H45.4234Z" fill="#141719"/> <path d="M51.0082 14.1941C52.6839 14.1941 53.7114 13.0661 53.7114 11.1967C53.7114 9.33784 52.6786 8.20453 51.0082 8.20453C49.3325 8.20453 48.2997 9.33784 48.2997 11.1967C48.2997 13.0661 49.3272 14.1941 51.0082 14.1941ZM51.0082 13.1826C50.0228 13.1826 49.4695 12.4571 49.4695 11.1967C49.4695 9.94686 50.0228 9.21603 51.0082 9.21603C51.9883 9.21603 52.5469 9.94686 52.5469 11.1967C52.5469 12.4518 51.9883 13.1826 51.0082 13.1826Z" fill="#141719"/> <path d="M54.5906 14.0829H55.7235V10.6777C55.7235 9.86742 56.3295 9.32195 57.1884 9.32195C57.3886 9.32195 57.7259 9.35902 57.8207 9.3908V8.26808C57.6995 8.23631 57.4835 8.22042 57.3149 8.22042C56.5666 8.22042 55.929 8.63349 55.7657 9.20015H55.6813V8.31574H54.5906V14.0829Z" fill="#141719"/> <path d="M60.6338 9.17367C61.4716 9.17367 62.0196 9.76151 62.046 10.6671H59.1478C59.211 9.7668 59.7959 9.17367 60.6338 9.17367ZM62.0407 12.5259C61.8299 12.9761 61.361 13.225 60.6759 13.225C59.7696 13.225 59.1847 12.5842 59.1478 11.5727V11.5091H63.2V11.1119C63.2 9.30077 62.2357 8.20453 60.639 8.20453C59.0213 8.20453 57.9938 9.37491 57.9938 11.2179C57.9938 13.0608 59.0003 14.1941 60.6443 14.1941C61.9564 14.1941 62.8733 13.5586 63.1315 12.5259H62.0407Z" fill="#141719"/> <path d="M37.9938 11.9532C38.0812 13.3693 39.2555 14.275 41.0032 14.275C42.8711 14.275 44.0399 13.3254 44.0399 11.8105C44.0399 10.6194 43.3735 9.96069 41.7569 9.58195L40.8885 9.36788C39.8617 9.12636 39.4466 8.80251 39.4466 8.23715C39.4466 7.52358 40.0911 7.05702 41.0578 7.05702C41.9754 7.05702 42.6089 7.5126 42.7236 8.24263H43.9142C43.8432 6.90881 42.6744 5.9702 41.0742 5.9702C39.3538 5.9702 38.2068 6.90881 38.2068 8.31948C38.2068 9.48314 38.8568 10.1748 40.2823 10.5096L41.2981 10.7566C42.3413 11.0036 42.8001 11.3659 42.8001 11.9697C42.8001 12.6722 42.0791 13.1827 41.096 13.1827C40.0419 13.1827 39.3101 12.7052 39.2063 11.9532H37.9938Z" fill="#141719"/> <path d="M26.2578 8.22042C25.478 8.22042 24.8035 8.61231 24.4557 9.26899H24.3714V8.31574H23.2806V16H24.4135V13.2091H24.5031C24.8035 13.8181 25.4516 14.1782 26.2684 14.1782C27.7175 14.1782 28.6396 13.029 28.6396 11.1967C28.6396 9.36432 27.7175 8.22042 26.2578 8.22042ZM25.9364 13.1561C24.9879 13.1561 24.3924 12.4041 24.3924 11.202C24.3924 9.99452 24.9879 9.24251 25.9417 9.24251C26.9007 9.24251 27.4751 9.97863 27.4751 11.1967C27.4751 12.42 26.9007 13.1561 25.9364 13.1561Z" fill="#141719"/> <path d="M32.6039 8.22042C31.824 8.22042 31.1496 8.61231 30.8018 9.26899H30.7175V8.31574H29.6267V16H30.7596V13.2091H30.8492C31.1496 13.8181 31.7977 14.1782 32.6145 14.1782C34.0636 14.1782 34.9857 13.029 34.9857 11.1967C34.9857 9.36432 34.0636 8.22042 32.6039 8.22042ZM32.2825 13.1561C31.334 13.1561 30.7385 12.4041 30.7385 11.202C30.7385 9.99452 31.334 9.24251 32.2878 9.24251C33.2468 9.24251 33.8212 9.97863 33.8212 11.1967C33.8212 12.42 33.2468 13.1561 32.2825 13.1561Z" fill="#141719"/> <path d="M21.2479 14.0829H22.5478L19.7023 6.16231H18.386L15.5405 14.0829H16.7967L17.5231 11.9806H20.527L21.2479 14.0829ZM18.9813 7.60042H19.0742L20.2157 10.9487H17.8344L18.9813 7.60042Z" fill="#141719"/> <path d="M16.3006 0.188002V4.00895H17.6733C18.8062 4.00895 19.4622 3.30725 19.4622 2.08656C19.4622 0.884405 18.8009 0.188002 17.6733 0.188002H16.3006ZM16.8907 0.728177H17.6074C18.3952 0.728177 18.8615 1.23128 18.8615 2.0945C18.8615 2.97096 18.4031 3.46877 17.6074 3.46877H16.8907V0.728177Z" fill="#141719"/> <path d="M21.4715 4.06455C22.3093 4.06455 22.8231 3.50055 22.8231 2.56583C22.8231 1.63641 22.3067 1.06976 21.4715 1.06976C20.6336 1.06976 20.1172 1.63641 20.1172 2.56583C20.1172 3.50055 20.631 4.06455 21.4715 4.06455ZM21.4715 3.5588C20.9788 3.5588 20.7021 3.19604 20.7021 2.56583C20.7021 1.94092 20.9788 1.57551 21.4715 1.57551C21.9615 1.57551 22.2408 1.94092 22.2408 2.56583C22.2408 3.19339 21.9615 3.5588 21.4715 3.5588Z" fill="#141719"/> <path d="M27.1983 1.12537H26.6318L26.1207 3.32578H26.0759L25.4857 1.12537H24.943L24.3528 3.32578H24.3106L23.7969 1.12537H23.2225L24.0129 4.00895H24.5952L25.1854 1.88532H25.2302L25.823 4.00895H26.4105L27.1983 1.12537Z" fill="#141719"/> <path d="M27.8507 4.00895H28.4171V2.32222C28.4171 1.87208 28.6832 1.5914 29.1022 1.5914C29.5211 1.5914 29.7213 1.82177 29.7213 2.28515V4.00895H30.2878V2.14217C30.2878 1.45635 29.9347 1.06976 29.2945 1.06976C28.8624 1.06976 28.5778 1.26306 28.4382 1.58345H28.396V1.12537H27.8507V4.00895Z" fill="#141719"/> <path d="M31.1799 4.00895H31.7464V0H31.1799V4.00895Z" fill="#141719"/> <path d="M33.8768 4.06455C34.7146 4.06455 35.2284 3.50055 35.2284 2.56583C35.2284 1.63641 34.712 1.06976 33.8768 1.06976C33.039 1.06976 32.5225 1.63641 32.5225 2.56583C32.5225 3.50055 33.0363 4.06455 33.8768 4.06455ZM33.8768 3.5588C33.3841 3.5588 33.1075 3.19604 33.1075 2.56583C33.1075 1.94092 33.3841 1.57551 33.8768 1.57551C34.3669 1.57551 34.6461 1.94092 34.6461 2.56583C34.6461 3.19339 34.3669 3.5588 33.8768 3.5588Z" fill="#141719"/> <path d="M36.9162 3.57734C36.6079 3.57734 36.384 3.42641 36.384 3.16691C36.384 2.91271 36.5632 2.77767 36.9584 2.75119L37.6592 2.70617V2.94713C37.6592 3.3046 37.343 3.57734 36.9162 3.57734ZM36.7713 4.05661C37.1481 4.05661 37.4616 3.89244 37.6329 3.60382H37.6776V4.00895H38.223V2.0389C38.223 1.42988 37.8173 1.06976 37.098 1.06976C36.4472 1.06976 35.9835 1.38751 35.9256 1.88267H36.4736C36.5368 1.67878 36.7555 1.56227 37.0717 1.56227C37.459 1.56227 37.6592 1.73439 37.6592 2.0389V2.2878L36.882 2.33282C36.1996 2.37518 35.8149 2.6744 35.8149 3.19339C35.8149 3.72032 36.218 4.05661 36.7713 4.05661Z" fill="#141719"/> <path d="M40.1453 4.05661C40.5405 4.05661 40.8751 3.86861 41.0464 3.55351H41.0912V4.00895H41.6339V0H41.0675V1.58345H41.0253C40.8699 1.2657 40.5379 1.0777 40.1453 1.0777C39.4208 1.0777 38.9544 1.65495 38.9544 2.56583C38.9544 3.47936 39.4155 4.05661 40.1453 4.05661ZM40.306 1.58875C40.7803 1.58875 41.078 1.9674 41.078 2.56848C41.078 3.17221 40.7829 3.54556 40.306 3.54556C39.8265 3.54556 39.5393 3.1775 39.5393 2.56583C39.5393 1.95946 39.8292 1.58875 40.306 1.58875Z" fill="#141719"/> <path d="M45.3073 4.06455C46.1451 4.06455 46.6589 3.50055 46.6589 2.56583C46.6589 1.63641 46.1425 1.06976 45.3073 1.06976C44.4694 1.06976 43.953 1.63641 43.953 2.56583C43.953 3.50055 44.4668 4.06455 45.3073 4.06455ZM45.3073 3.5588C44.8146 3.5588 44.5379 3.19604 44.5379 2.56583C44.5379 1.94092 44.8146 1.57551 45.3073 1.57551C45.7973 1.57551 46.0766 1.94092 46.0766 2.56583C46.0766 3.19339 45.7973 3.5588 45.3073 3.5588Z" fill="#141719"/> <path d="M47.4087 4.00895H47.9752V2.32222C47.9752 1.87208 48.2413 1.5914 48.6602 1.5914C49.0791 1.5914 49.2794 1.82177 49.2794 2.28515V4.00895H49.8458V2.14217C49.8458 1.45635 49.4928 1.06976 48.8526 1.06976C48.4205 1.06976 48.1359 1.26306 47.9963 1.58345H47.9541V1.12537H47.4087V4.00895Z" fill="#141719"/> <path d="M52.4548 0.407779V1.1386H51.9989V1.61788H52.4548V3.24635C52.4548 3.80241 52.7051 4.02484 53.3348 4.02484C53.4454 4.02484 53.5508 4.0116 53.643 3.99571V3.52173C53.564 3.52967 53.5139 3.53497 53.427 3.53497C53.1451 3.53497 53.0212 3.40257 53.0212 3.10071V1.61788H53.643V1.1386H53.0212V0.407779H52.4548Z" fill="#141719"/> <path d="M54.4034 4.00895H54.9699V2.32487C54.9699 1.88797 55.2281 1.59405 55.6918 1.59405C56.0922 1.59405 56.3057 1.82706 56.3057 2.2878V4.00895H56.8721V2.14746C56.8721 1.46165 56.4954 1.07241 55.8841 1.07241C55.452 1.07241 55.149 1.2657 55.0094 1.58875H54.9646V0H54.4034V4.00895Z" fill="#141719"/> <path d="M58.9156 1.55433C59.3345 1.55433 59.6085 1.84825 59.6217 2.30104H58.1726C58.2042 1.85089 58.4967 1.55433 58.9156 1.55433ZM59.6191 3.23046C59.5137 3.45553 59.2792 3.57998 58.9367 3.57998C58.4835 3.57998 58.1911 3.25959 58.1726 2.75383V2.72206H60.1987V2.52347C60.1987 1.61788 59.7166 1.06976 58.9183 1.06976C58.1094 1.06976 57.5956 1.65495 57.5956 2.57642C57.5956 3.4979 58.0989 4.06455 58.9209 4.06455C59.5769 4.06455 60.0354 3.7468 60.1645 3.23046H59.6191Z" fill="#141719"/> <path d="M9.39353 7.58226C9.40728 6.50979 9.98036 5.495 10.8895 4.93328C10.316 4.11006 9.35532 3.58812 8.35586 3.55669C7.28986 3.44424 6.25642 4.19777 5.7132 4.19777C5.15947 4.19777 4.3231 3.56786 3.42248 3.58648C2.24855 3.6246 1.15415 4.29537 0.583008 5.32684C-0.644721 7.46311 0.271054 10.6027 1.44711 12.3295C2.03552 13.1751 2.7232 14.1196 3.62302 14.0861C4.50354 14.0494 4.8324 13.5218 5.89527 13.5218C6.94827 13.5218 7.25681 14.0861 8.17488 14.0648C9.11973 14.0494 9.71502 13.2155 10.2828 12.3619C10.7056 11.7594 11.0309 11.0935 11.2467 10.3889C10.1363 9.91691 9.39482 8.79389 9.39353 7.58226Z" fill="#141719"/> <path d="M7.65943 2.42107C8.1746 1.79953 8.4284 1.00065 8.36694 0.194077C7.57988 0.277157 6.85286 0.655205 6.33073 1.2529C5.82016 1.83687 5.55446 2.62169 5.60469 3.39744C6.39203 3.40558 7.16606 3.03778 7.65943 2.42107Z" fill="#141719"/> </svg>