<svg width="16" height="16" viewBox="0 0 16 16" fill="none" xmlns="http://www.w3.org/2000/svg">
<path d="M8.90823 11.3333C8.73356 11.3333 8.55956 11.2653 8.4289 11.13L5.85356 8.46334C5.60156 8.20134 5.6049 7.786 5.86223 7.52867L8.5289 4.862C8.7889 4.60134 9.2109 4.60134 9.47156 4.862C9.73156 5.12267 9.73156 5.544 9.47156 5.80467L7.26823 8.008L9.38756 10.2033C9.64356 10.4687 9.63623 10.8907 9.37156 11.146C9.24156 11.2713 9.0749 11.3333 8.90823 11.3333Z" fill="#555F62"/>
<mask id="mask0_213_19631" style="mask-type:luminance" maskUnits="userSpaceOnUse" x="5" y="4" width="5" height="8">
<path d="M8.90823 11.3333C8.73356 11.3333 8.55956 11.2653 8.4289 11.13L5.85356 8.46334C5.60156 8.20134 5.6049 7.786 5.86223 7.52867L8.5289 4.862C8.7889 4.60134 9.2109 4.60134 9.47156 4.862C9.73156 5.12267 9.73156 5.544 9.47156 5.80467L7.26823 8.008L9.38756 10.2033C9.64356 10.4687 9.63623 10.8907 9.37156 11.146C9.24156 11.2713 9.0749 11.3333 8.90823 11.3333Z" fill="white"/>
</mask>
<g mask="url(#mask0_213_19631)">
</g>
</svg>
