<svg xmlns="http://www.w3.org/2000/svg" width="14" height="14" fill="none"><path fill="#182CC0" fill-rule="evenodd" d="M6.417 7.044A.59.59 0 0 1 6.415 7V2.333a.583.583 0 1 1 1.167 0V7l1.4-1.05a.582.582 0 1 1 .7.933l-2.333 1.75a.583.583 0 0 1-.686.01L4.33 7.004A.583.583 0 1 1 5 6.047l1.417.996ZM3.499 9.917v.583h7v-.583c0-.321.262-.584.583-.584.32 0 .583.263.583.584v1.166c0 .321-.262.584-.583.584H2.915a.585.585 0 0 1-.583-.584V9.917c0-.321.263-.584.583-.584.321 0 .584.263.584.584Z" clip-rule="evenodd"/><mask id="a" width="10" height="11" x="2" y="1" maskUnits="userSpaceOnUse" style="mask-type:luminance"><path fill="#fff" fill-rule="evenodd" d="M6.417 7.044A.59.59 0 0 1 6.415 7V2.333a.583.583 0 1 1 1.167 0V7l1.4-1.05a.582.582 0 1 1 .7.933l-2.333 1.75a.583.583 0 0 1-.686.01L4.33 7.004A.583.583 0 1 1 5 6.047l1.417.996ZM3.499 9.917v.583h7v-.583c0-.321.262-.584.583-.584.32 0 .583.263.583.584v1.166c0 .321-.262.584-.583.584H2.915a.585.585 0 0 1-.583-.584V9.917c0-.321.263-.584.583-.584.321 0 .584.263.584.584Z" clip-rule="evenodd"/></mask></svg>