<svg xmlns="http://www.w3.org/2000/svg" width="16" height="16" fill="currentColor"><path d="M14.665 8c0-3.673-2.993-6.667-6.666-6.667-3.674 0-6.667 2.994-6.667 6.667 0 3.673 2.993 6.667 6.667 6.667 3.673 0 6.666-2.994 6.666-6.667Zm-1.38-.667H11.32c-.06-1.5-.347-2.96-.86-4.066a5.338 5.338 0 0 1 2.833 4.066h-.007Zm-5.286 6c-1.02 0-1.86-2.033-1.98-4.666h3.966c-.12 2.633-.96 4.666-1.98 4.666H8Zm-1.98-6c.12-2.633.96-4.666 1.98-4.666s1.86 2.033 1.98 4.666H6.012h.007Zm-.474-4.066c-.52 1.106-.8 2.56-.86 4.066H2.72a5.338 5.338 0 0 1 2.833-4.066h-.007Zm-2.833 5.4h1.967c.06 1.5.346 2.96.86 4.066a5.338 5.338 0 0 1-2.834-4.066h.007Zm7.74 4.066c.52-1.106.8-2.56.86-4.066h1.967a5.338 5.338 0 0 1-2.834 4.066h.007Z"/></svg>