<svg width="68" height="16" viewBox="0 0 68 16" fill="none" xmlns="http://www.w3.org/2000/svg"> <path d="M34.1418 8.75264C32.7613 8.75264 31.636 9.80453 31.636 11.2533C31.636 12.6932 32.7613 13.7539 34.1418 13.7539C35.523 13.7539 36.6482 12.6932 36.6482 11.2533C36.6476 9.80453 35.5224 8.75264 34.1418 8.75264ZM34.1418 12.7697C33.3852 12.7697 32.7331 12.1447 32.7331 11.2539C32.7331 10.3537 33.3858 9.73808 34.1418 9.73808C34.8984 9.73808 35.5506 10.3537 35.5506 11.2539C35.5506 12.1441 34.8984 12.7697 34.1418 12.7697ZM28.6747 8.75264C27.2942 8.75264 26.1689 9.80453 26.1689 11.2533C26.1689 12.6932 27.2942 13.7539 28.6747 13.7539C30.0559 13.7539 31.1811 12.6932 31.1811 11.2533C31.1811 9.80453 30.0559 8.75264 28.6747 8.75264ZM28.6747 12.7697C27.9181 12.7697 27.266 12.1447 27.266 11.2539C27.266 10.3537 27.9187 9.73808 28.6747 9.73808C29.4313 9.73808 30.0835 10.3537 30.0835 11.2539C30.0841 12.1441 29.4313 12.7697 28.6747 12.7697ZM22.1722 9.52053V10.5812H24.7068C24.631 11.178 24.4326 11.6137 24.1298 11.9165C23.7611 12.2858 23.1841 12.6932 22.1722 12.6932C20.612 12.6932 19.3923 11.4332 19.3923 9.87038C19.3923 8.30755 20.612 7.04752 22.1722 7.04752C23.0139 7.04752 23.6285 7.37914 24.0822 7.80542L24.8294 7.05693C24.1955 6.45073 23.3544 5.98682 22.1722 5.98682C20.035 5.98682 18.2383 7.72957 18.2383 9.87038C18.2383 12.0112 20.035 13.7539 22.1722 13.7539C23.3256 13.7539 24.1961 13.3747 24.8764 12.6644C25.5761 11.9636 25.7938 10.9781 25.7938 10.1826C25.7938 9.93682 25.7751 9.70927 25.7369 9.51995H22.1722V9.52053ZM48.7669 10.3443C48.5591 9.78571 47.9252 8.75264 46.6298 8.75264C45.3437 8.75264 44.2748 9.76631 44.2748 11.2533C44.2748 12.655 45.3343 13.7539 46.7524 13.7539C47.8965 13.7539 48.5586 13.0531 48.8333 12.6456L47.9821 12.077C47.6986 12.4939 47.3106 12.7685 46.7524 12.7685C46.1948 12.7685 45.7974 12.5127 45.5421 12.0106L48.8802 10.6277L48.7669 10.3443ZM45.3625 11.178C45.3343 10.2114 46.1097 9.71927 46.6679 9.71927C47.1029 9.71927 47.4715 9.93741 47.5947 10.2496L45.3625 11.178ZM42.6489 13.6028H43.7454V6.25258H42.6489V13.6028ZM40.8516 9.3118H40.814C40.568 9.01782 40.0949 8.75264 39.4998 8.75264C38.2512 8.75264 37.1072 9.85156 37.1072 11.2633C37.1072 12.665 38.2512 13.7545 39.4998 13.7545C40.0955 13.7545 40.568 13.4894 40.814 13.1865H40.8516V13.5464C40.8516 14.503 40.3409 15.0146 39.5185 15.0146C38.847 15.0146 38.4309 14.5318 38.2606 14.1244L37.3056 14.5224C37.5798 15.1851 38.3076 16 39.5185 16C40.8046 16 41.8923 15.2421 41.8923 13.3947V8.90493H40.8521V9.3118H40.8516ZM39.5943 12.7697C38.8376 12.7697 38.2043 12.1347 38.2043 11.2633C38.2043 10.3819 38.8376 9.73808 39.5943 9.73808C40.3409 9.73808 40.9273 10.3819 40.9273 11.2633C40.9273 12.1347 40.3409 12.7697 39.5943 12.7697ZM53.9053 6.25258H51.281V13.6028H52.3757V10.8182H53.9047C55.1186 10.8182 56.3125 9.938 56.3125 8.53568C56.3125 7.13336 55.1192 6.25258 53.9053 6.25258ZM53.9335 9.79512H52.3757V7.27565H53.9335C54.7523 7.27565 55.2172 7.95476 55.2172 8.53568C55.2172 9.10484 54.7523 9.79512 53.9335 9.79512ZM60.7025 8.73971C59.9095 8.73971 59.0883 9.08955 58.7485 9.86509L59.7205 10.2714C59.9283 9.86509 60.3157 9.73221 60.7213 9.73221C61.2877 9.73221 61.8636 10.0726 61.873 10.6777V10.7535C61.6746 10.64 61.2496 10.4701 60.7307 10.4701C59.6829 10.4701 58.6158 11.0469 58.6158 12.1247C58.6158 13.1083 59.4752 13.7416 60.4378 13.7416C61.1739 13.7416 61.5801 13.4106 61.8348 13.0225H61.8724V13.5899H62.9301V10.7717C62.9307 9.46762 61.9575 8.73971 60.7025 8.73971ZM60.5699 12.7679C60.2118 12.7679 59.7111 12.588 59.7111 12.1435C59.7111 11.5761 60.3345 11.3585 60.8727 11.3585C61.3535 11.3585 61.5806 11.4626 61.873 11.6043C61.7878 12.2858 61.2026 12.7679 60.5699 12.7679ZM66.7818 8.90022L65.5263 12.087H65.4887L64.1856 8.90022H63.0058L64.9599 13.3541L63.8458 15.8318H64.988L67.9998 8.90022H66.7818ZM56.9171 13.6028H58.0118V6.25258H56.9171V13.6028Z" fill="#141719"/> <path d="M21.9786 1.98615C21.9786 2.47887 21.833 2.87105 21.5413 3.16386C21.2102 3.51194 20.7782 3.68598 20.2476 3.68598C19.7393 3.68598 19.3067 3.50958 18.9515 3.1568C18.5958 2.80343 18.418 2.36598 18.418 1.84386C18.418 1.32115 18.5958 0.883696 18.9515 0.530912C19.3067 0.17754 19.7393 0.00114886 20.2476 0.00114886C20.5 0.00114886 20.7412 0.0505383 20.9701 0.14873C21.1997 0.247509 21.3834 0.378627 21.5207 0.542672L21.2114 0.853122C20.9784 0.573834 20.6573 0.434485 20.247 0.434485C19.876 0.434485 19.5555 0.565015 19.2849 0.826075C19.0143 1.08714 18.8793 1.4264 18.8793 1.84327C18.8793 2.26014 19.0143 2.5994 19.2849 2.86046C19.5555 3.12152 19.876 3.25205 20.247 3.25205C20.6403 3.25205 20.9684 3.12093 21.2308 2.85811C21.401 2.68701 21.4996 2.44888 21.526 2.14372H20.247V1.71979H21.9533C21.9709 1.81211 21.9786 1.90089 21.9786 1.98615Z" fill="#141719"/> <path d="M24.6846 0.512718H23.081V1.63104H24.5273V2.05497H23.081V3.1733H24.6846V3.60722H22.6284V0.0793822H24.6846V0.512718Z" fill="#141719"/> <path d="M26.5928 3.60722H26.1402V0.512718H25.1564V0.0793822H27.5766V0.512718H26.5928V3.60722Z" fill="#141719"/> <path d="M29.3275 3.60722V0.0793822H29.78V3.60722H29.3275Z" fill="#141719"/> <path d="M31.787 3.60722H31.3344V0.512718H30.3507V0.0793822H32.7708V0.512718H31.787V3.60722Z" fill="#141719"/> <path d="M37.352 3.15154C37.0057 3.50785 36.5754 3.686 36.0606 3.686C35.5459 3.686 35.1156 3.50785 34.7699 3.15154C34.4236 2.79522 34.251 2.35895 34.251 1.8433C34.251 1.32764 34.4236 0.891367 34.7699 0.535055C35.1156 0.178744 35.5459 0 36.0606 0C36.5725 0 37.0022 0.179332 37.3497 0.537407C37.6971 0.895483 37.8709 1.33058 37.8709 1.8433C37.8709 2.35895 37.6977 2.79522 37.352 3.15154ZM35.1039 2.85579C35.3645 3.12037 35.6832 3.25208 36.0606 3.25208C36.4381 3.25208 36.7574 3.11979 37.0174 2.85579C37.278 2.5912 37.4089 2.2537 37.4089 1.8433C37.4089 1.43289 37.278 1.09539 37.0174 0.830806C36.7574 0.566218 36.4381 0.434512 36.0606 0.434512C35.6832 0.434512 35.3645 0.566806 35.1039 0.830806C34.8438 1.09539 34.713 1.43289 34.713 1.8433C34.713 2.2537 34.8438 2.5912 35.1039 2.85579Z" fill="#141719"/> <path d="M38.506 3.60722V0.0793822H39.0566L40.7682 2.82345H40.7876L40.7682 2.14376V0.0793822H41.2208V3.60722H40.7483L38.9574 0.729681H38.938L38.9574 1.40938V3.60722H38.506Z" fill="#141719"/> <g filter="url(#filter0_ii_337_17937)"> <path d="M0.271771 0.395736C0.10096 0.576832 -2.50784e-07 0.857883 -2.50784e-07 1.22184V14.2254C-2.50784e-07 14.59 0.10096 14.8705 0.271771 15.0516L0.315207 15.0939L7.58726 7.80949V7.72364V7.6378L0.315207 0.352814L0.271771 0.395736Z" fill="url(#paint0_linear_337_17937)"/> <path d="M10.0096 10.2383L7.58594 7.80943V7.72358V7.63774L10.0102 5.20941L10.0647 5.24057L12.9368 6.87514C13.7568 7.34199 13.7568 8.10577 12.9368 8.5732L10.0647 10.2078L10.0096 10.2383Z" fill="url(#paint1_linear_337_17937)"/> <g filter="url(#filter1_i_337_17937)"> <path d="M10.0638 10.2072L7.58443 7.72363L0.269532 15.0515C0.539541 15.3385 0.98623 15.3738 1.48927 15.088L10.0638 10.2072Z" fill="url(#paint2_linear_337_17937)"/> </g> <path d="M10.0638 5.24001L1.48927 0.359835C0.98623 0.0734917 0.539541 0.109358 0.269532 0.396289L7.58502 7.7242L10.0638 5.24001Z" fill="url(#paint3_linear_337_17937)"/> </g> <defs> <filter id="filter0_ii_337_17937" x="0" y="0.162231" width="13.5508" height="15.1231" filterUnits="userSpaceOnUse" color-interpolation-filters="sRGB"> <feFlood flood-opacity="0" result="BackgroundImageFix"/> <feBlend mode="normal" in="SourceGraphic" in2="BackgroundImageFix" result="shape"/> <feColorMatrix in="SourceAlpha" type="matrix" values="0 0 0 0 0 0 0 0 0 0 0 0 0 0 0 0 0 0 127 0" result="hardAlpha"/> <feOffset dy="-0.15"/> <feComposite in2="hardAlpha" operator="arithmetic" k2="-1" k3="1"/> <feColorMatrix type="matrix" values="0 0 0 0 0 0 0 0 0 0 0 0 0 0 0 0 0 0 0.12 0"/> <feBlend mode="normal" in2="shape" result="effect1_innerShadow_337_17937"/> <feColorMatrix in="SourceAlpha" type="matrix" values="0 0 0 0 0 0 0 0 0 0 0 0 0 0 0 0 0 0 127 0" result="hardAlpha"/> <feOffset dy="0.15"/> <feComposite in2="hardAlpha" operator="arithmetic" k2="-1" k3="1"/> <feColorMatrix type="matrix" values="0 0 0 0 1 0 0 0 0 1 0 0 0 0 1 0 0 0 0.25 0"/> <feBlend mode="normal" in2="effect1_innerShadow_337_17937" result="effect2_innerShadow_337_17937"/> </filter> <filter id="filter1_i_337_17937" x="0.269531" y="7.72363" width="9.79297" height="7.56174" filterUnits="userSpaceOnUse" color-interpolation-filters="sRGB"> <feFlood flood-opacity="0" result="BackgroundImageFix"/> <feBlend mode="normal" in="SourceGraphic" in2="BackgroundImageFix" result="shape"/> <feColorMatrix in="SourceAlpha" type="matrix" values="0 0 0 0 0 0 0 0 0 0 0 0 0 0 0 0 0 0 127 0" result="hardAlpha"/> <feOffset dy="-0.15"/> <feComposite in2="hardAlpha" operator="arithmetic" k2="-1" k3="1"/> <feColorMatrix type="matrix" values="0 0 0 0 0 0 0 0 0 0 0 0 0 0 0 0 0 0 0.08 0"/> <feBlend mode="normal" in2="shape" result="effect1_innerShadow_337_17937"/> </filter> <linearGradient id="paint0_linear_337_17937" x1="6.94264" y1="1.08425" x2="-2.92471" y2="10.9349" gradientUnits="userSpaceOnUse"> <stop stop-color="#00A0FF"/> <stop offset="0.0066" stop-color="#00A1FF"/> <stop offset="0.2601" stop-color="#00BEFF"/> <stop offset="0.5122" stop-color="#00D2FF"/> <stop offset="0.7604" stop-color="#00DFFF"/> <stop offset="1" stop-color="#00E3FF"/> </linearGradient> <linearGradient id="paint1_linear_337_17937" x1="14.0042" y1="7.72358" x2="-0.198194" y2="7.72358" gradientUnits="userSpaceOnUse"> <stop stop-color="#FFE000"/> <stop offset="0.4087" stop-color="#FFBD00"/> <stop offset="0.7754" stop-color="#FFA500"/> <stop offset="1" stop-color="#FF9C00"/> </linearGradient> <linearGradient id="paint2_linear_337_17937" x1="8.71736" y1="9.07238" x2="-4.66401" y2="22.4311" gradientUnits="userSpaceOnUse"> <stop stop-color="#FF3A44"/> <stop offset="1" stop-color="#C31162"/> </linearGradient> <linearGradient id="paint3_linear_337_17937" x1="-1.57275" y1="-3.93249" x2="4.4024" y2="2.03254" gradientUnits="userSpaceOnUse"> <stop stop-color="#32A071"/> <stop offset="0.0685" stop-color="#2DA771"/> <stop offset="0.4762" stop-color="#15CF74"/> <stop offset="0.8009" stop-color="#06E775"/> <stop offset="1" stop-color="#00F076"/> </linearGradient> </defs> </svg>