<svg xmlns="http://www.w3.org/2000/svg" width="36" height="32" fill="currentColor"><path d="M15.815 18.48a3.436 3.436 0 0 1-1.09 2.867v.002a39.804 39.804 0 0 1-11.993 7.596l-.265.095c-.37.151-.802.27-1.25.335l-.03.003A.974.974 0 0 1 .002 28.37v.003c.018-.219.063-.424.132-.615l-.005.017c1.202-3.38 5.271-10.722 7.027-13.747 2.183-3.79 7.908-12.909 8.762-13.91a.302.302 0 0 1 .376-.086L16.29.031c.142.068.26.156.116.661-.75 2.702-1.835 8.587-.712 16.633.058.416.122.796.122 1.156h-.002ZM17.218 22.345a3.51 3.51 0 0 1 2.02-.63c.372 0 .731.056 1.068.163l-.025-.006c4.936 1.513 9.221 3.777 12.963 6.692l-.084-.063c.353.274.662.578.93.915l.01.011a.963.963 0 0 1-.28 1.517l-.006.003c-.17.082-.368.148-.576.185l-.014.001c-3.558.666-12.047.839-15.567.865-4.413.03-15.262-.307-16.576-.52a.305.305 0 0 1-.263-.275V31.2c0-.155 0-.297.527-.427 2.747-.713 8.434-2.728 14.94-7.706.332-.281.632-.521.933-.725v.002ZM19.918 19.23a3.505 3.505 0 0 1-1.946-2.357l-.005-.023c-.646-2.651-1.016-5.694-1.016-8.823 0-1.945.144-3.856.42-5.724l-.026.212a5.21 5.21 0 0 1 .355-1.299l-.012.034a.988.988 0 0 1 1.48-.52h-.004c.173.12.323.256.456.408l.003.003c2.362 2.712 6.758 9.893 8.54 12.882 2.23 3.76 7.381 13.21 7.814 14.45a.305.305 0 0 1-.11.365h-.001c-.131.088-.264.14-.632-.23-2.02-1.99-6.617-5.863-14.229-8.925a16.308 16.308 0 0 1-1.086-.453h-.001Z"/></svg>